<svg id="p-logo" xmlns="http://www.w3.org/2000/svg" xmlns:xlink="http://www.w3.org/1999/xlink" viewBox="0 0 300 300" shape-rendering="geometricPrecision" text-rendering="geometricPrecision"><g id="p-logo-s-g1" transform="matrix(1.88188 0 0 1.898652-98.321145-73.654101)"><path id="p-logo-u-copy-of-ellipse" d="M0,-40.032747c21.692316,0,39.277412,17.923271,39.277412,40.032747s-17.585096,40.032747-39.277412,40.032747-39.277412-17.923271-39.277412-40.032747" transform="translate(134.23004 94.099582)" fill="none" stroke="#8330c2" stroke-width="6"/><path id="p-logo-u-ellipse" d="M36.441139,0C36.441139,21.415269,20.125885,38.775775,0,38.775775s-36.441139-17.360506-36.441139-38.775775" transform="matrix(.507668 0 0 0.477102 113.644683 158.878036)" fill="none" stroke="#8330c2" stroke-width="12"/><line id="p-logo-s-line1" x1="-0.403972" y1="-37.690645" x2="-0.403972" y2="28.061796" transform="matrix(.999985 0 0 1.569997 95.548649 115.136165)" fill="none" stroke="#8330c2" stroke-width="6"/><line id="p-logo-s-line2" x1="0" y1="4.94634" x2="0" y2="-18.845322" transform="matrix(1 0 0 1.018328 132.144683 154.107386)" fill="none" stroke="#8330c2" stroke-width="6"/><line id="p-logo-s-line3" x1="19.638706" y1="-0.475164" x2="-19.638706" y2="0.475164" transform="matrix(1.09206 0 0 1 113.546645 54.541999)" fill="none" stroke="#8330c2" stroke-width="6"/></g></svg>
